<?xml version="1.0" encoding="utf-8"?>
<svg viewBox="3.879 3.806 23.724 21.98" xmlns="http://www.w3.org/2000/svg">
  <rect style="fill: rgb(255, 255, 255); border-style: solid; border-color: black; border-width: 2px;" transform="matrix(0.9999449849128723, -0.01052700076252222, 0, 1.000054955482483, 4.818100929260254, 5.357966899871826)" x="1.056" y="0.934" width="19.735" height="17.237"/>
  <g transform="matrix(0.07379800826311111, 0, 0, -0.06823301315307617, 5.040288925170898, 24.007455825805664)" fill="#000000" stroke="none&quot; style=&quot;border-color:black;" style="">
    <path d="M20 135 l0 -115 125 0 125 0 0 115 0 115 -125 0 -125 0 0 -115z m50&#10;80 c0 -8 -7 -15 -15 -15 -8 0 -15 7 -15 15 0 8 7 15 15 15 8 0 15 -7 15 -15z&#10;m60 0 c0 -8 -7 -15 -15 -15 -8 0 -15 7 -15 15 0 8 7 15 15 15 8 0 15 -7 15&#10;-15z m60 0 c0 -8 -7 -15 -15 -15 -8 0 -15 7 -15 15 0 8 7 15 15 15 8 0 15 -7&#10;15 -15z m60 0 c0 -8 -7 -15 -15 -15 -8 0 -15 7 -15 15 0 8 7 15 15 15 8 0 15&#10;-7 15 -15z m-53 -79 c2 -1 -18 -12 -42 -24 l-45 -22 0 45 0 45 43 -21 c23 -12&#10;43 -22 44 -23z m-127 -81 c0 -8 -7 -15 -15 -15 -8 0 -15 7 -15 15 0 8 7 15 15&#10;15 8 0 15 -7 15 -15z m60 0 c0 -8 -7 -15 -15 -15 -8 0 -15 7 -15 15 0 8 7 15&#10;15 15 8 0 15 -7 15 -15z m60 0 c0 -8 -7 -15 -15 -15 -8 0 -15 7 -15 15 0 8 7&#10;15 15 15 8 0 15 -7 15 -15z m60 0 c0 -8 -7 -15 -15 -15 -8 0 -15 7 -15 15 0 8&#10;7 15 15 15 8 0 15 -7 15 -15z" style="fill: rgb(36, 36, 36);"/>
  </g>
</svg>